<svg xmlns="http://www.w3.org/2000/svg" viewBox="0 0 900 900" width="900" height="900" role="img" aria-label="bouquet-03-two">
  <defs>
    <linearGradient id="bg" x1="0" y1="0" x2="1" y2="1">
      <stop offset="0%" stop-color="#efe9f2"/>
      <stop offset="100%" stop-color="#ded2e6"/>
    </linearGradient>
    <radialGradient id="glow" cx="30%" cy="24%" r="72%">
      <stop offset="0%" stop-color="#ffffff" stop-opacity="0.55"/>
      <stop offset="100%" stop-color="#ffffff" stop-opacity="0"/>
    </radialGradient>
  </defs>
  <rect width="900" height="900" fill="url(#bg)"/>
  <rect width="900" height="900" fill="url(#glow)"/>
  <circle cx="647.0" cy="653.2" r="1.6" fill="#ffffff" opacity="0.16"/><circle cx="407.9" cy="579.3" r="2.2" fill="#ffffff" opacity="0.06"/><circle cx="131.6" cy="564.5" r="3.0" fill="#ffffff" opacity="0.12"/><circle cx="899.0" cy="51.5" r="1.7" fill="#ffffff" opacity="0.07"/><circle cx="280.8" cy="106.6" r="2.4" fill="#ffffff" opacity="0.08"/><circle cx="226.7" cy="862.8" r="1.2" fill="#ffffff" opacity="0.10"/><circle cx="7.3" cy="748.6" r="2.8" fill="#ffffff" opacity="0.11"/><circle cx="286.9" cy="607.0" r="1.0" fill="#ffffff" opacity="0.12"/><circle cx="865.0" cy="87.2" r="2.0" fill="#ffffff" opacity="0.17"/><circle cx="343.5" cy="302.3" r="2.8" fill="#ffffff" opacity="0.13"/><circle cx="647.3" cy="68.9" r="2.0" fill="#ffffff" opacity="0.09"/><circle cx="864.3" cy="83.1" r="1.9" fill="#ffffff" opacity="0.10"/><circle cx="662.4" cy="552.4" r="2.3" fill="#ffffff" opacity="0.06"/><circle cx="64.8" cy="510.6" r="3.3" fill="#ffffff" opacity="0.17"/><circle cx="503.1" cy="535.5" r="3.2" fill="#ffffff" opacity="0.06"/><circle cx="317.0" cy="600.4" r="2.9" fill="#ffffff" opacity="0.12"/><circle cx="555.8" cy="756.5" r="1.5" fill="#ffffff" opacity="0.05"/><circle cx="30.6" cy="588.7" r="3.0" fill="#ffffff" opacity="0.18"/><circle cx="870.5" cy="317.7" r="2.0" fill="#ffffff" opacity="0.12"/><circle cx="614.4" cy="533.1" r="2.7" fill="#ffffff" opacity="0.10"/><circle cx="753.0" cy="756.6" r="2.9" fill="#ffffff" opacity="0.09"/><circle cx="279.6" cy="667.2" r="1.5" fill="#ffffff" opacity="0.10"/><circle cx="197.0" cy="281.0" r="2.7" fill="#ffffff" opacity="0.16"/><circle cx="383.4" cy="256.7" r="3.2" fill="#ffffff" opacity="0.08"/><circle cx="372.5" cy="662.3" r="2.4" fill="#ffffff" opacity="0.09"/><circle cx="750.9" cy="173.6" r="2.6" fill="#ffffff" opacity="0.09"/>
  <path d="M706.4778760598223 504.199284232268 q 120.64027911039078 -105.56024422159192 301.6006977759769 -30.160069777597695 q -135.7203139991896 120.64027911039078 -301.6006977759769 30.160069777597695 z" fill="#6f8a72" opacity="0.85" transform="rotate(192.275073023577 706.4778760598223 504.199284232268)"/>
  <path d="M706.4778760598223 504.199284232268 q 97.6611783274592 -85.45353103652678 244.15294581864796 -24.4152945818648 q -109.86882561839158 97.6611783274592 -244.15294581864796 24.4152945818648 z" fill="#6f8a72" opacity="0.85" transform="rotate(230.51276813040317 706.4778760598223 504.199284232268)"/>
  <ellipse cx="706.4778760598223" cy="425.2086252909407" rx="60.3" ry="143.6" fill="#c1a8d6" opacity="0.92" transform="rotate(0.7 706.4778760598223 504.199284232268)"/><ellipse cx="706.4778760598223" cy="425.2086252909407" rx="60.3" ry="143.6" fill="#9c7fbb" opacity="0.92" transform="rotate(45.7 706.4778760598223 504.199284232268)"/><ellipse cx="706.4778760598223" cy="425.2086252909407" rx="60.3" ry="143.6" fill="#c1a8d6" opacity="0.92" transform="rotate(90.7 706.4778760598223 504.199284232268)"/><ellipse cx="706.4778760598223" cy="425.2086252909407" rx="60.3" ry="143.6" fill="#9c7fbb" opacity="0.92" transform="rotate(135.7 706.4778760598223 504.199284232268)"/><ellipse cx="706.4778760598223" cy="425.2086252909407" rx="60.3" ry="143.6" fill="#c1a8d6" opacity="0.92" transform="rotate(180.7 706.4778760598223 504.199284232268)"/><ellipse cx="706.4778760598223" cy="425.2086252909407" rx="60.3" ry="143.6" fill="#9c7fbb" opacity="0.92" transform="rotate(225.7 706.4778760598223 504.199284232268)"/><ellipse cx="706.4778760598223" cy="425.2086252909407" rx="60.3" ry="143.6" fill="#c1a8d6" opacity="0.92" transform="rotate(270.7 706.4778760598223 504.199284232268)"/><ellipse cx="706.4778760598223" cy="425.2086252909407" rx="60.3" ry="143.6" fill="#9c7fbb" opacity="0.92" transform="rotate(315.7 706.4778760598223 504.199284232268)"/><circle cx="706.4778760598223" cy="504.199284232268" r="48.8" fill="#f6e7b6"/>
  <path d="M675.5884357396486 701.5786075712132 q 110.01651321638761 -96.26444906433915 275.041283040969 -27.504128304096902 q -123.76857736843606 110.01651321638761 -275.041283040969 27.504128304096902 z" fill="#6f8a72" opacity="0.85" transform="rotate(135.90879581307732 675.5884357396486 701.5786075712132)"/>
  <path d="M675.5884357396486 701.5786075712132 q 89.06098688945663 -77.92836352827455 222.65246722364157 -22.265246722364157 q -100.19361025063871 89.06098688945663 -222.65246722364157 22.265246722364157 z" fill="#6f8a72" opacity="0.85" transform="rotate(36.262490320080545 675.5884357396486 701.5786075712132)"/>
  <ellipse cx="675.5884357396486" cy="629.543985822388" rx="55.0" ry="131.0" fill="#c1a8d6" opacity="0.92" transform="rotate(29.4 675.5884357396486 701.5786075712132)"/><ellipse cx="675.5884357396486" cy="629.543985822388" rx="55.0" ry="131.0" fill="#9c7fbb" opacity="0.92" transform="rotate(80.8 675.5884357396486 701.5786075712132)"/><ellipse cx="675.5884357396486" cy="629.543985822388" rx="55.0" ry="131.0" fill="#c1a8d6" opacity="0.92" transform="rotate(132.3 675.5884357396486 701.5786075712132)"/><ellipse cx="675.5884357396486" cy="629.543985822388" rx="55.0" ry="131.0" fill="#9c7fbb" opacity="0.92" transform="rotate(183.7 675.5884357396486 701.5786075712132)"/><ellipse cx="675.5884357396486" cy="629.543985822388" rx="55.0" ry="131.0" fill="#c1a8d6" opacity="0.92" transform="rotate(235.1 675.5884357396486 701.5786075712132)"/><ellipse cx="675.5884357396486" cy="629.543985822388" rx="55.0" ry="131.0" fill="#9c7fbb" opacity="0.92" transform="rotate(286.6 675.5884357396486 701.5786075712132)"/><ellipse cx="675.5884357396486" cy="629.543985822388" rx="55.0" ry="131.0" fill="#c1a8d6" opacity="0.92" transform="rotate(338.0 675.5884357396486 701.5786075712132)"/><circle cx="675.5884357396486" cy="701.5786075712132" r="44.5" fill="#f6e7b6"/>
  <path d="M421.3869006492633 605.2040394500839 q 83.5422382232785 -73.09945844536867 208.85559555819623 -20.885559555819626 q -93.98501800118831 83.5422382232785 -208.85559555819623 20.885559555819626 z" fill="#6f8a72" opacity="0.85" transform="rotate(311.98731323517563 421.3869006492633 605.2040394500839)"/>
  <path d="M421.3869006492633 605.2040394500839 q 67.62943094265403 -59.17575207482226 169.07357735663504 -16.907357735663506 q -76.08310981048577 67.62943094265403 -169.07357735663504 16.907357735663506 z" fill="#6f8a72" opacity="0.85" transform="rotate(63.341929126377664 421.3869006492633 605.2040394500839)"/>
  <ellipse cx="421.3869006492633" cy="550.5037644229373" rx="41.8" ry="99.5" fill="#c1a8d6" opacity="0.92" transform="rotate(26.6 421.3869006492633 605.2040394500839)"/><ellipse cx="421.3869006492633" cy="550.5037644229373" rx="41.8" ry="99.5" fill="#9c7fbb" opacity="0.92" transform="rotate(78.0 421.3869006492633 605.2040394500839)"/><ellipse cx="421.3869006492633" cy="550.5037644229373" rx="41.8" ry="99.5" fill="#c1a8d6" opacity="0.92" transform="rotate(129.5 421.3869006492633 605.2040394500839)"/><ellipse cx="421.3869006492633" cy="550.5037644229373" rx="41.8" ry="99.5" fill="#9c7fbb" opacity="0.92" transform="rotate(180.9 421.3869006492633 605.2040394500839)"/><ellipse cx="421.3869006492633" cy="550.5037644229373" rx="41.8" ry="99.5" fill="#c1a8d6" opacity="0.92" transform="rotate(232.3 421.3869006492633 605.2040394500839)"/><ellipse cx="421.3869006492633" cy="550.5037644229373" rx="41.8" ry="99.5" fill="#9c7fbb" opacity="0.92" transform="rotate(283.7 421.3869006492633 605.2040394500839)"/><ellipse cx="421.3869006492633" cy="550.5037644229373" rx="41.8" ry="99.5" fill="#c1a8d6" opacity="0.92" transform="rotate(335.2 421.3869006492633 605.2040394500839)"/><circle cx="421.3869006492633" cy="605.2040394500839" r="33.8" fill="#f6e7b6"/>
  <path d="M540.5636561202266 313.15965851609593 q 56.73791524735698 -49.64567584143735 141.84478811839244 -14.184478811839245 q -63.8301546532766 56.73791524735698 -141.84478811839244 14.184478811839245 z" fill="#6f8a72" opacity="0.85" transform="rotate(284.7153552725714 540.5636561202266 313.15965851609593)"/>
  <path d="M540.5636561202266 313.15965851609593 q 45.93069329547945 -40.18935663354451 114.82673323869862 -11.482673323869863 q -51.67202995741438 45.93069329547945 -114.82673323869862 11.482673323869863 z" fill="#6f8a72" opacity="0.85" transform="rotate(82.3352401615901 540.5636561202266 313.15965851609593)"/>
  <ellipse cx="540.5636561202266" cy="276.009833056517" rx="28.4" ry="67.5" fill="#c1a8d6" opacity="0.92" transform="rotate(57.8 540.5636561202266 313.15965851609593)"/><ellipse cx="540.5636561202266" cy="276.009833056517" rx="28.4" ry="67.5" fill="#9c7fbb" opacity="0.92" transform="rotate(117.8 540.5636561202266 313.15965851609593)"/><ellipse cx="540.5636561202266" cy="276.009833056517" rx="28.4" ry="67.5" fill="#c1a8d6" opacity="0.92" transform="rotate(177.8 540.5636561202266 313.15965851609593)"/><ellipse cx="540.5636561202266" cy="276.009833056517" rx="28.4" ry="67.5" fill="#9c7fbb" opacity="0.92" transform="rotate(237.8 540.5636561202266 313.15965851609593)"/><ellipse cx="540.5636561202266" cy="276.009833056517" rx="28.4" ry="67.5" fill="#c1a8d6" opacity="0.92" transform="rotate(297.8 540.5636561202266 313.15965851609593)"/><ellipse cx="540.5636561202266" cy="276.009833056517" rx="28.4" ry="67.5" fill="#9c7fbb" opacity="0.92" transform="rotate(357.8 540.5636561202266 313.15965851609593)"/><circle cx="540.5636561202266" cy="313.15965851609593" r="23.0" fill="#f6e7b6"/>
</svg>
