<svg xmlns="http://www.w3.org/2000/svg" viewBox="0 0 900 900" width="900" height="900" role="img" aria-label="box-03">
  <defs>
    <linearGradient id="bg" x1="0" y1="0" x2="1" y2="1">
      <stop offset="0%" stop-color="#e9f1ee"/>
      <stop offset="100%" stop-color="#cfe1db"/>
    </linearGradient>
    <radialGradient id="glow" cx="30%" cy="24%" r="72%">
      <stop offset="0%" stop-color="#ffffff" stop-opacity="0.55"/>
      <stop offset="100%" stop-color="#ffffff" stop-opacity="0"/>
    </radialGradient>
  </defs>
  <rect width="900" height="900" fill="url(#bg)"/>
  <rect width="900" height="900" fill="url(#glow)"/>
  <circle cx="616.2" cy="214.4" r="1.6" fill="#ffffff" opacity="0.06"/><circle cx="188.2" cy="660.6" r="1.7" fill="#ffffff" opacity="0.10"/><circle cx="564.2" cy="306.4" r="1.5" fill="#ffffff" opacity="0.11"/><circle cx="625.9" cy="110.0" r="3.2" fill="#ffffff" opacity="0.16"/><circle cx="441.8" cy="706.5" r="1.0" fill="#ffffff" opacity="0.06"/><circle cx="81.8" cy="716.7" r="1.3" fill="#ffffff" opacity="0.12"/><circle cx="827.5" cy="548.7" r="2.1" fill="#ffffff" opacity="0.07"/><circle cx="430.2" cy="70.8" r="2.5" fill="#ffffff" opacity="0.10"/><circle cx="496.6" cy="93.1" r="1.1" fill="#ffffff" opacity="0.13"/><circle cx="188.5" cy="645.2" r="1.7" fill="#ffffff" opacity="0.12"/><circle cx="641.5" cy="329.5" r="2.2" fill="#ffffff" opacity="0.09"/><circle cx="314.8" cy="174.2" r="2.1" fill="#ffffff" opacity="0.09"/><circle cx="1.6" cy="466.9" r="2.2" fill="#ffffff" opacity="0.05"/><circle cx="400.6" cy="394.4" r="1.3" fill="#ffffff" opacity="0.13"/><circle cx="314.9" cy="97.8" r="2.3" fill="#ffffff" opacity="0.13"/><circle cx="514.7" cy="844.1" r="1.2" fill="#ffffff" opacity="0.09"/><circle cx="662.1" cy="841.0" r="2.9" fill="#ffffff" opacity="0.11"/><circle cx="452.1" cy="494.6" r="2.3" fill="#ffffff" opacity="0.07"/><circle cx="551.9" cy="120.7" r="2.1" fill="#ffffff" opacity="0.15"/><circle cx="298.4" cy="705.4" r="1.6" fill="#ffffff" opacity="0.17"/><circle cx="131.2" cy="269.7" r="2.8" fill="#ffffff" opacity="0.13"/><circle cx="134.4" cy="392.7" r="2.7" fill="#ffffff" opacity="0.17"/><circle cx="444.7" cy="144.0" r="1.9" fill="#ffffff" opacity="0.14"/><circle cx="55.1" cy="886.1" r="3.2" fill="#ffffff" opacity="0.16"/><circle cx="888.0" cy="698.1" r="1.3" fill="#ffffff" opacity="0.18"/><circle cx="59.9" cy="635.0" r="1.1" fill="#ffffff" opacity="0.12"/>
  <path d="M563.6209089200993 335.9923531478253 q 106.58924488086005 -93.26558927075253 266.4731122021501 -26.647311220215013 q -119.91290049096754 106.58924488086005 -266.4731122021501 26.647311220215013 z" fill="#008577" opacity="0.85" transform="rotate(92.6741127885585 563.6209089200993 335.9923531478253)"/>
  <path d="M563.6209089200993 335.9923531478253 q 86.28653157022003 -75.50071512394253 215.71632892555007 -21.57163289255501 q -97.07234801649753 86.28653157022003 -215.71632892555007 21.57163289255501 z" fill="#008577" opacity="0.85" transform="rotate(222.367908782877 563.6209089200993 335.9923531478253)"/>
  <ellipse cx="563.6209089200993" cy="266.2017761425003" rx="53.3" ry="126.9" fill="#f7f2ee" opacity="0.92" transform="rotate(30.3 563.6209089200993 335.9923531478253)"/><ellipse cx="563.6209089200993" cy="266.2017761425003" rx="53.3" ry="126.9" fill="#dcd2c8" opacity="0.92" transform="rotate(102.3 563.6209089200993 335.9923531478253)"/><ellipse cx="563.6209089200993" cy="266.2017761425003" rx="53.3" ry="126.9" fill="#f7f2ee" opacity="0.92" transform="rotate(174.3 563.6209089200993 335.9923531478253)"/><ellipse cx="563.6209089200993" cy="266.2017761425003" rx="53.3" ry="126.9" fill="#dcd2c8" opacity="0.92" transform="rotate(246.3 563.6209089200993 335.9923531478253)"/><ellipse cx="563.6209089200993" cy="266.2017761425003" rx="53.3" ry="126.9" fill="#f7f2ee" opacity="0.92" transform="rotate(318.3 563.6209089200993 335.9923531478253)"/><circle cx="563.6209089200993" cy="335.9923531478253" r="43.1" fill="#fccb18"/>
  <path d="M416.475662752631 624.9358977225926 q 99.27292795415805 -86.86381195988828 248.18231988539512 -24.818231988539512 q -111.6820439484278 99.27292795415805 -248.18231988539512 24.818231988539512 z" fill="#008577" opacity="0.85" transform="rotate(255.16993993315148 416.475662752631 624.9358977225926)"/>
  <path d="M416.475662752631 624.9358977225926 q 80.3637988200327 -70.3183239675286 200.90949705008174 -20.090949705008175 q -90.40927367253678 80.3637988200327 -200.90949705008174 20.090949705008175 z" fill="#008577" opacity="0.85" transform="rotate(190.10892261520704 416.475662752631 624.9358977225926)"/>
  <ellipse cx="416.475662752631" cy="559.9357663240368" rx="49.6" ry="118.2" fill="#f7f2ee" opacity="0.92" transform="rotate(25.4 416.475662752631 624.9358977225926)"/><ellipse cx="416.475662752631" cy="559.9357663240368" rx="49.6" ry="118.2" fill="#dcd2c8" opacity="0.92" transform="rotate(85.4 416.475662752631 624.9358977225926)"/><ellipse cx="416.475662752631" cy="559.9357663240368" rx="49.6" ry="118.2" fill="#f7f2ee" opacity="0.92" transform="rotate(145.4 416.475662752631 624.9358977225926)"/><ellipse cx="416.475662752631" cy="559.9357663240368" rx="49.6" ry="118.2" fill="#dcd2c8" opacity="0.92" transform="rotate(205.4 416.475662752631 624.9358977225926)"/><ellipse cx="416.475662752631" cy="559.9357663240368" rx="49.6" ry="118.2" fill="#f7f2ee" opacity="0.92" transform="rotate(265.4 416.475662752631 624.9358977225926)"/><ellipse cx="416.475662752631" cy="559.9357663240368" rx="49.6" ry="118.2" fill="#dcd2c8" opacity="0.92" transform="rotate(325.4 416.475662752631 624.9358977225926)"/><circle cx="416.475662752631" cy="624.9358977225926" r="40.2" fill="#fccb18"/>
  <path d="M531.821557622827 432.43568545962586 q 82.31226641901588 -72.02323311663889 205.7806660475397 -20.57806660475397 q -92.60129972139288 82.31226641901588 -205.7806660475397 20.57806660475397 z" fill="#008577" opacity="0.85" transform="rotate(50.159089493136634 531.821557622827 432.43568545962586)"/>
  <path d="M531.821557622827 432.43568545962586 q 66.63373948206048 -58.304522046802916 166.5843487051512 -16.65843487051512 q -74.96295691731804 66.63373948206048 -166.5843487051512 16.65843487051512 z" fill="#008577" opacity="0.85" transform="rotate(192.53173963924212 531.821557622827 432.43568545962586)"/>
  <ellipse cx="531.821557622827" cy="378.5407491138416" rx="41.2" ry="98.0" fill="#f7f2ee" opacity="0.92" transform="rotate(8.4 531.821557622827 432.43568545962586)"/><ellipse cx="531.821557622827" cy="378.5407491138416" rx="41.2" ry="98.0" fill="#dcd2c8" opacity="0.92" transform="rotate(53.4 531.821557622827 432.43568545962586)"/><ellipse cx="531.821557622827" cy="378.5407491138416" rx="41.2" ry="98.0" fill="#f7f2ee" opacity="0.92" transform="rotate(98.4 531.821557622827 432.43568545962586)"/><ellipse cx="531.821557622827" cy="378.5407491138416" rx="41.2" ry="98.0" fill="#dcd2c8" opacity="0.92" transform="rotate(143.4 531.821557622827 432.43568545962586)"/><ellipse cx="531.821557622827" cy="378.5407491138416" rx="41.2" ry="98.0" fill="#f7f2ee" opacity="0.92" transform="rotate(188.4 531.821557622827 432.43568545962586)"/><ellipse cx="531.821557622827" cy="378.5407491138416" rx="41.2" ry="98.0" fill="#dcd2c8" opacity="0.92" transform="rotate(233.4 531.821557622827 432.43568545962586)"/><ellipse cx="531.821557622827" cy="378.5407491138416" rx="41.2" ry="98.0" fill="#f7f2ee" opacity="0.92" transform="rotate(278.4 531.821557622827 432.43568545962586)"/><ellipse cx="531.821557622827" cy="378.5407491138416" rx="41.2" ry="98.0" fill="#dcd2c8" opacity="0.92" transform="rotate(323.4 531.821557622827 432.43568545962586)"/><circle cx="531.821557622827" cy="432.43568545962586" r="33.3" fill="#fccb18"/>
  <path d="M391.85966577517326 277.7778410161328 q 65.89501164609918 -57.65813519033677 164.73752911524792 -16.473752911524794 q -74.13188810186156 65.89501164609918 -164.73752911524792 16.473752911524794 z" fill="#008577" opacity="0.85" transform="rotate(39.63026961303089 391.85966577517326 277.7778410161328)"/>
  <path d="M391.85966577517326 277.7778410161328 q 53.34358085636599 -46.675633249320235 133.35895214091497 -13.335895214091497 q -60.011528463411736 53.34358085636599 -133.35895214091497 13.335895214091497 z" fill="#008577" opacity="0.85" transform="rotate(257.8137263883403 391.85966577517326 277.7778410161328)"/>
  <ellipse cx="391.85966577517326" cy="234.63229767642503" rx="32.9" ry="78.4" fill="#f7f2ee" opacity="0.92" transform="rotate(43.0 391.85966577517326 277.7778410161328)"/><ellipse cx="391.85966577517326" cy="234.63229767642503" rx="32.9" ry="78.4" fill="#dcd2c8" opacity="0.92" transform="rotate(88.0 391.85966577517326 277.7778410161328)"/><ellipse cx="391.85966577517326" cy="234.63229767642503" rx="32.9" ry="78.4" fill="#f7f2ee" opacity="0.92" transform="rotate(133.0 391.85966577517326 277.7778410161328)"/><ellipse cx="391.85966577517326" cy="234.63229767642503" rx="32.9" ry="78.4" fill="#dcd2c8" opacity="0.92" transform="rotate(178.0 391.85966577517326 277.7778410161328)"/><ellipse cx="391.85966577517326" cy="234.63229767642503" rx="32.9" ry="78.4" fill="#f7f2ee" opacity="0.92" transform="rotate(223.0 391.85966577517326 277.7778410161328)"/><ellipse cx="391.85966577517326" cy="234.63229767642503" rx="32.9" ry="78.4" fill="#dcd2c8" opacity="0.92" transform="rotate(268.0 391.85966577517326 277.7778410161328)"/><ellipse cx="391.85966577517326" cy="234.63229767642503" rx="32.9" ry="78.4" fill="#f7f2ee" opacity="0.92" transform="rotate(313.0 391.85966577517326 277.7778410161328)"/><ellipse cx="391.85966577517326" cy="234.63229767642503" rx="32.9" ry="78.4" fill="#dcd2c8" opacity="0.92" transform="rotate(358.0 391.85966577517326 277.7778410161328)"/><circle cx="391.85966577517326" cy="277.7778410161328" r="26.7" fill="#fccb18"/>
  <path d="M652.949418450461 450.8290059726753 q 89.779905347093 -78.55741717870636 224.4497633677325 -22.44497633677325 q -101.00239351547962 89.779905347093 -224.4497633677325 22.44497633677325 z" fill="#008577" opacity="0.85" transform="rotate(229.40935151404918 652.949418450461 450.8290059726753)"/>
  <path d="M652.949418450461 450.8290059726753 q 72.67897099526576 -63.59409962085753 181.69742748816438 -18.16974274881644 q -81.76384236967397 72.67897099526576 -181.69742748816438 18.16974274881644 z" fill="#008577" opacity="0.85" transform="rotate(128.83827852291014 652.949418450461 450.8290059726753)"/>
  <ellipse cx="652.949418450461" cy="392.0445441382692" rx="44.9" ry="106.9" fill="#f7f2ee" opacity="0.92" transform="rotate(16.6 652.949418450461 450.8290059726753)"/><ellipse cx="652.949418450461" cy="392.0445441382692" rx="44.9" ry="106.9" fill="#dcd2c8" opacity="0.92" transform="rotate(68.0 652.949418450461 450.8290059726753)"/><ellipse cx="652.949418450461" cy="392.0445441382692" rx="44.9" ry="106.9" fill="#f7f2ee" opacity="0.92" transform="rotate(119.4 652.949418450461 450.8290059726753)"/><ellipse cx="652.949418450461" cy="392.0445441382692" rx="44.9" ry="106.9" fill="#dcd2c8" opacity="0.92" transform="rotate(170.9 652.949418450461 450.8290059726753)"/><ellipse cx="652.949418450461" cy="392.0445441382692" rx="44.9" ry="106.9" fill="#f7f2ee" opacity="0.92" transform="rotate(222.3 652.949418450461 450.8290059726753)"/><ellipse cx="652.949418450461" cy="392.0445441382692" rx="44.9" ry="106.9" fill="#dcd2c8" opacity="0.92" transform="rotate(273.7 652.949418450461 450.8290059726753)"/><ellipse cx="652.949418450461" cy="392.0445441382692" rx="44.9" ry="106.9" fill="#f7f2ee" opacity="0.92" transform="rotate(325.1 652.949418450461 450.8290059726753)"/><circle cx="652.949418450461" cy="450.8290059726753" r="36.3" fill="#fccb18"/>
  <path d="M371.53164889326587 628.496833825134 q 101.00981047387464 -88.3835841646403 252.52452618468658 -25.25245261846866 q -113.63603678310896 101.00981047387464 -252.52452618468658 25.25245261846866 z" fill="#008577" opacity="0.85" transform="rotate(53.20566193508116 371.53164889326587 628.496833825134)"/>
  <path d="M371.53164889326587 628.496833825134 q 81.76984657408899 -71.54861575232785 204.42461643522245 -20.442461643522247 q -91.9910773958501 81.76984657408899 -204.42461643522245 20.442461643522247 z" fill="#008577" opacity="0.85" transform="rotate(11.72922785666986 371.53164889326587 628.496833825134)"/>
  <ellipse cx="371.53164889326587" cy="562.3594579196208" rx="50.5" ry="120.2" fill="#f7f2ee" opacity="0.92" transform="rotate(11.0 371.53164889326587 628.496833825134)"/><ellipse cx="371.53164889326587" cy="562.3594579196208" rx="50.5" ry="120.2" fill="#dcd2c8" opacity="0.92" transform="rotate(83.0 371.53164889326587 628.496833825134)"/><ellipse cx="371.53164889326587" cy="562.3594579196208" rx="50.5" ry="120.2" fill="#f7f2ee" opacity="0.92" transform="rotate(155.0 371.53164889326587 628.496833825134)"/><ellipse cx="371.53164889326587" cy="562.3594579196208" rx="50.5" ry="120.2" fill="#dcd2c8" opacity="0.92" transform="rotate(227.0 371.53164889326587 628.496833825134)"/><ellipse cx="371.53164889326587" cy="562.3594579196208" rx="50.5" ry="120.2" fill="#f7f2ee" opacity="0.92" transform="rotate(299.0 371.53164889326587 628.496833825134)"/><circle cx="371.53164889326587" cy="628.496833825134" r="40.9" fill="#fccb18"/>
</svg>
