<svg xmlns="http://www.w3.org/2000/svg" viewBox="0 0 900 900" width="900" height="900" role="img" aria-label="gift-04-three">
  <defs>
    <linearGradient id="bg" x1="0" y1="0" x2="1" y2="1">
      <stop offset="0%" stop-color="#e8eff0"/>
      <stop offset="100%" stop-color="#cfe0e0"/>
    </linearGradient>
    <radialGradient id="glow" cx="30%" cy="24%" r="72%">
      <stop offset="0%" stop-color="#ffffff" stop-opacity="0.55"/>
      <stop offset="100%" stop-color="#ffffff" stop-opacity="0"/>
    </radialGradient>
  </defs>
  <rect width="900" height="900" fill="url(#bg)"/>
  <rect width="900" height="900" fill="url(#glow)"/>
  <circle cx="302.6" cy="851.4" r="2.5" fill="#ffffff" opacity="0.13"/><circle cx="258.0" cy="861.1" r="2.8" fill="#ffffff" opacity="0.11"/><circle cx="64.3" cy="192.8" r="1.2" fill="#ffffff" opacity="0.16"/><circle cx="139.2" cy="630.3" r="1.3" fill="#ffffff" opacity="0.12"/><circle cx="642.0" cy="94.6" r="1.6" fill="#ffffff" opacity="0.16"/><circle cx="790.9" cy="718.6" r="2.5" fill="#ffffff" opacity="0.11"/><circle cx="536.4" cy="114.8" r="3.2" fill="#ffffff" opacity="0.07"/><circle cx="243.8" cy="139.9" r="2.2" fill="#ffffff" opacity="0.13"/><circle cx="455.8" cy="547.9" r="3.2" fill="#ffffff" opacity="0.12"/><circle cx="814.4" cy="629.1" r="1.7" fill="#ffffff" opacity="0.06"/><circle cx="357.1" cy="177.0" r="2.3" fill="#ffffff" opacity="0.06"/><circle cx="311.2" cy="367.0" r="1.0" fill="#ffffff" opacity="0.18"/><circle cx="671.9" cy="795.6" r="2.0" fill="#ffffff" opacity="0.15"/><circle cx="797.2" cy="499.1" r="3.1" fill="#ffffff" opacity="0.14"/><circle cx="300.0" cy="553.9" r="2.0" fill="#ffffff" opacity="0.12"/><circle cx="239.9" cy="391.8" r="1.4" fill="#ffffff" opacity="0.09"/><circle cx="328.4" cy="212.6" r="2.1" fill="#ffffff" opacity="0.07"/><circle cx="862.0" cy="193.2" r="1.2" fill="#ffffff" opacity="0.17"/><circle cx="648.9" cy="565.0" r="2.3" fill="#ffffff" opacity="0.18"/><circle cx="220.2" cy="633.8" r="1.2" fill="#ffffff" opacity="0.14"/><circle cx="144.6" cy="624.3" r="3.0" fill="#ffffff" opacity="0.14"/><circle cx="405.6" cy="453.0" r="2.4" fill="#ffffff" opacity="0.17"/><circle cx="833.2" cy="71.0" r="2.8" fill="#ffffff" opacity="0.10"/><circle cx="880.3" cy="391.4" r="3.2" fill="#ffffff" opacity="0.18"/><circle cx="447.4" cy="785.3" r="2.5" fill="#ffffff" opacity="0.15"/><circle cx="571.0" cy="323.1" r="2.9" fill="#ffffff" opacity="0.15"/>
  <path d="M569.4572411085147 568.8449784784682 q 77.55948970853339 -67.86455349496671 193.89872427133346 -19.389872427133348 q -87.25442592210005 77.55948970853339 -193.89872427133346 19.389872427133348 z" fill="#4f8079" opacity="0.85" transform="rotate(196.49960720830123 569.4572411085147 568.8449784784682)"/>
  <path d="M569.4572411085147 568.8449784784682 q 62.78625357357464 -54.93797187687781 156.9656339339366 -15.69656339339366 q -70.63453527027147 62.78625357357464 -156.9656339339366 15.69656339339366 z" fill="#4f8079" opacity="0.85" transform="rotate(62.362237196034336 569.4572411085147 568.8449784784682)"/>
  <ellipse cx="569.4572411085147" cy="518.0619792645475" rx="38.8" ry="92.3" fill="#a8c9cf" opacity="0.92" transform="rotate(19.7 569.4572411085147 568.8449784784682)"/><ellipse cx="569.4572411085147" cy="518.0619792645475" rx="38.8" ry="92.3" fill="#7fa9b4" opacity="0.92" transform="rotate(79.7 569.4572411085147 568.8449784784682)"/><ellipse cx="569.4572411085147" cy="518.0619792645475" rx="38.8" ry="92.3" fill="#a8c9cf" opacity="0.92" transform="rotate(139.7 569.4572411085147 568.8449784784682)"/><ellipse cx="569.4572411085147" cy="518.0619792645475" rx="38.8" ry="92.3" fill="#7fa9b4" opacity="0.92" transform="rotate(199.7 569.4572411085147 568.8449784784682)"/><ellipse cx="569.4572411085147" cy="518.0619792645475" rx="38.8" ry="92.3" fill="#a8c9cf" opacity="0.92" transform="rotate(259.7 569.4572411085147 568.8449784784682)"/><ellipse cx="569.4572411085147" cy="518.0619792645475" rx="38.8" ry="92.3" fill="#7fa9b4" opacity="0.92" transform="rotate(319.7 569.4572411085147 568.8449784784682)"/><circle cx="569.4572411085147" cy="568.8449784784682" r="31.4" fill="#f0e4b8"/>
  <path d="M706.1602449790016 588.9177855404369 q 119.24841161813784 -104.3423601658706 298.1210290453446 -29.81210290453446 q -134.15446307040506 119.24841161813784 -298.1210290453446 29.81210290453446 z" fill="#4f8079" opacity="0.85" transform="rotate(267.7021158923633 706.1602449790016 588.9177855404369)"/>
  <path d="M706.1602449790016 588.9177855404369 q 96.53442845277824 -84.46762489618095 241.3360711319456 -24.13360711319456 q -108.60123200937552 96.53442845277824 -241.3360711319456 24.13360711319456 z" fill="#4f8079" opacity="0.85" transform="rotate(173.55123372132684 706.1602449790016 588.9177855404369)"/>
  <ellipse cx="706.1602449790016" cy="510.83846840951327" rx="59.6" ry="142.0" fill="#a8c9cf" opacity="0.92" transform="rotate(34.6 706.1602449790016 588.9177855404369)"/><ellipse cx="706.1602449790016" cy="510.83846840951327" rx="59.6" ry="142.0" fill="#7fa9b4" opacity="0.92" transform="rotate(94.6 706.1602449790016 588.9177855404369)"/><ellipse cx="706.1602449790016" cy="510.83846840951327" rx="59.6" ry="142.0" fill="#a8c9cf" opacity="0.92" transform="rotate(154.6 706.1602449790016 588.9177855404369)"/><ellipse cx="706.1602449790016" cy="510.83846840951327" rx="59.6" ry="142.0" fill="#7fa9b4" opacity="0.92" transform="rotate(214.6 706.1602449790016 588.9177855404369)"/><ellipse cx="706.1602449790016" cy="510.83846840951327" rx="59.6" ry="142.0" fill="#a8c9cf" opacity="0.92" transform="rotate(274.6 706.1602449790016 588.9177855404369)"/><ellipse cx="706.1602449790016" cy="510.83846840951327" rx="59.6" ry="142.0" fill="#7fa9b4" opacity="0.92" transform="rotate(334.6 706.1602449790016 588.9177855404369)"/><circle cx="706.1602449790016" cy="588.9177855404369" r="48.3" fill="#f0e4b8"/>
  <path d="M727.6642291968838 486.8060827666908 q 104.40235854886528 -91.35206373025711 261.0058963721632 -26.10058963721632 q -117.45265336747345 104.40235854886528 -261.0058963721632 26.10058963721632 z" fill="#4f8079" opacity="0.85" transform="rotate(121.67086115145842 727.6642291968838 486.8060827666908)"/>
  <path d="M727.6642291968838 486.8060827666908 q 84.5161950157481 -73.95167063877958 211.29048753937022 -21.129048753937024 q -95.0807193927166 84.5161950157481 -211.29048753937022 21.129048753937024 z" fill="#4f8079" opacity="0.85" transform="rotate(70.95441231293474 727.6642291968838 486.8060827666908)"/>
  <ellipse cx="727.6642291968838" cy="418.44739562160044" rx="52.2" ry="124.3" fill="#a8c9cf" opacity="0.92" transform="rotate(33.2 727.6642291968838 486.8060827666908)"/><ellipse cx="727.6642291968838" cy="418.44739562160044" rx="52.2" ry="124.3" fill="#7fa9b4" opacity="0.92" transform="rotate(84.7 727.6642291968838 486.8060827666908)"/><ellipse cx="727.6642291968838" cy="418.44739562160044" rx="52.2" ry="124.3" fill="#a8c9cf" opacity="0.92" transform="rotate(136.1 727.6642291968838 486.8060827666908)"/><ellipse cx="727.6642291968838" cy="418.44739562160044" rx="52.2" ry="124.3" fill="#7fa9b4" opacity="0.92" transform="rotate(187.5 727.6642291968838 486.8060827666908)"/><ellipse cx="727.6642291968838" cy="418.44739562160044" rx="52.2" ry="124.3" fill="#a8c9cf" opacity="0.92" transform="rotate(239.0 727.6642291968838 486.8060827666908)"/><ellipse cx="727.6642291968838" cy="418.44739562160044" rx="52.2" ry="124.3" fill="#7fa9b4" opacity="0.92" transform="rotate(290.4 727.6642291968838 486.8060827666908)"/><ellipse cx="727.6642291968838" cy="418.44739562160044" rx="52.2" ry="124.3" fill="#a8c9cf" opacity="0.92" transform="rotate(341.8 727.6642291968838 486.8060827666908)"/><circle cx="727.6642291968838" cy="486.8060827666908" r="42.3" fill="#f0e4b8"/>
  <path d="M270.42782295784633 518.2854585019605 q 80.85011308740131 -70.74384895147614 202.12528271850326 -20.212528271850328 q -90.95637722332647 80.85011308740131 -202.12528271850326 20.212528271850328 z" fill="#4f8079" opacity="0.85" transform="rotate(136.75927978399193 270.42782295784633 518.2854585019605)"/>
  <path d="M270.42782295784633 518.2854585019605 q 65.45009154694391 -57.268830103575915 163.62522886735977 -16.362522886735977 q -73.6313529903119 65.45009154694391 -163.62522886735977 16.362522886735977 z" fill="#4f8079" opacity="0.85" transform="rotate(112.88590343503418 270.42782295784633 518.2854585019605)"/>
  <ellipse cx="270.42782295784633" cy="465.34788445663827" rx="40.4" ry="96.3" fill="#a8c9cf" opacity="0.92" transform="rotate(48.6 270.42782295784633 518.2854585019605)"/><ellipse cx="270.42782295784633" cy="465.34788445663827" rx="40.4" ry="96.3" fill="#7fa9b4" opacity="0.92" transform="rotate(100.1 270.42782295784633 518.2854585019605)"/><ellipse cx="270.42782295784633" cy="465.34788445663827" rx="40.4" ry="96.3" fill="#a8c9cf" opacity="0.92" transform="rotate(151.5 270.42782295784633 518.2854585019605)"/><ellipse cx="270.42782295784633" cy="465.34788445663827" rx="40.4" ry="96.3" fill="#7fa9b4" opacity="0.92" transform="rotate(202.9 270.42782295784633 518.2854585019605)"/><ellipse cx="270.42782295784633" cy="465.34788445663827" rx="40.4" ry="96.3" fill="#a8c9cf" opacity="0.92" transform="rotate(254.3 270.42782295784633 518.2854585019605)"/><ellipse cx="270.42782295784633" cy="465.34788445663827" rx="40.4" ry="96.3" fill="#7fa9b4" opacity="0.92" transform="rotate(305.8 270.42782295784633 518.2854585019605)"/><ellipse cx="270.42782295784633" cy="465.34788445663827" rx="40.4" ry="96.3" fill="#a8c9cf" opacity="0.92" transform="rotate(357.2 270.42782295784633 518.2854585019605)"/><circle cx="270.42782295784633" cy="518.2854585019605" r="32.7" fill="#f0e4b8"/>
  <path d="M535.7927102273779 470.94320004362226 q 119.09636146440553 -104.20931628135483 297.7409036610138 -29.774090366101383 q -133.98340664745623 119.09636146440553 -297.7409036610138 29.774090366101383 z" fill="#4f8079" opacity="0.85" transform="rotate(248.53423009825272 535.7927102273779 470.94320004362226)"/>
  <path d="M535.7927102273779 470.94320004362226 q 96.41134023309019 -84.3599227039539 241.02835058272544 -24.102835058272547 q -108.46275776222645 96.41134023309019 -241.02835058272544 24.102835058272547 z" fill="#4f8079" opacity="0.85" transform="rotate(75.32604034881248 535.7927102273779 470.94320004362226)"/>
  <ellipse cx="535.7927102273779" cy="392.96343956097576" rx="59.5" ry="141.8" fill="#a8c9cf" opacity="0.92" transform="rotate(46.5 535.7927102273779 470.94320004362226)"/><ellipse cx="535.7927102273779" cy="392.96343956097576" rx="59.5" ry="141.8" fill="#7fa9b4" opacity="0.92" transform="rotate(106.5 535.7927102273779 470.94320004362226)"/><ellipse cx="535.7927102273779" cy="392.96343956097576" rx="59.5" ry="141.8" fill="#a8c9cf" opacity="0.92" transform="rotate(166.5 535.7927102273779 470.94320004362226)"/><ellipse cx="535.7927102273779" cy="392.96343956097576" rx="59.5" ry="141.8" fill="#7fa9b4" opacity="0.92" transform="rotate(226.5 535.7927102273779 470.94320004362226)"/><ellipse cx="535.7927102273779" cy="392.96343956097576" rx="59.5" ry="141.8" fill="#a8c9cf" opacity="0.92" transform="rotate(286.5 535.7927102273779 470.94320004362226)"/><ellipse cx="535.7927102273779" cy="392.96343956097576" rx="59.5" ry="141.8" fill="#7fa9b4" opacity="0.92" transform="rotate(346.5 535.7927102273779 470.94320004362226)"/><circle cx="535.7927102273779" cy="470.94320004362226" r="48.2" fill="#f0e4b8"/>
  <path d="M319.07647816023706 375.2627944260051 q 96.38147225110362 -84.33378821971564 240.953680627759 -24.095368062775904 q -108.42915628249156 96.38147225110362 -240.953680627759 24.095368062775904 z" fill="#4f8079" opacity="0.85" transform="rotate(38.69547584995056 319.07647816023706 375.2627944260051)"/>
  <path d="M319.07647816023706 375.2627944260051 q 78.02309658422674 -68.27020951119839 195.05774146056683 -19.505774146056684 q -87.77598365725508 78.02309658422674 -195.05774146056683 19.505774146056684 z" fill="#4f8079" opacity="0.85" transform="rotate(289.667957241104 319.07647816023706 375.2627944260051)"/>
  <ellipse cx="319.07647816023706" cy="312.1558780711158" rx="48.2" ry="114.7" fill="#a8c9cf" opacity="0.92" transform="rotate(13.6 319.07647816023706 375.2627944260051)"/><ellipse cx="319.07647816023706" cy="312.1558780711158" rx="48.2" ry="114.7" fill="#7fa9b4" opacity="0.92" transform="rotate(73.6 319.07647816023706 375.2627944260051)"/><ellipse cx="319.07647816023706" cy="312.1558780711158" rx="48.2" ry="114.7" fill="#a8c9cf" opacity="0.92" transform="rotate(133.6 319.07647816023706 375.2627944260051)"/><ellipse cx="319.07647816023706" cy="312.1558780711158" rx="48.2" ry="114.7" fill="#7fa9b4" opacity="0.92" transform="rotate(193.6 319.07647816023706 375.2627944260051)"/><ellipse cx="319.07647816023706" cy="312.1558780711158" rx="48.2" ry="114.7" fill="#a8c9cf" opacity="0.92" transform="rotate(253.6 319.07647816023706 375.2627944260051)"/><ellipse cx="319.07647816023706" cy="312.1558780711158" rx="48.2" ry="114.7" fill="#7fa9b4" opacity="0.92" transform="rotate(313.6 319.07647816023706 375.2627944260051)"/><circle cx="319.07647816023706" cy="375.2627944260051" r="39.0" fill="#f0e4b8"/>
  <path d="M508.1855451376609 600.2116990252891 q 53.28805703208971 -46.627049903078486 133.22014258022426 -13.322014258022428 q -59.94906416110092 53.28805703208971 -133.22014258022426 13.322014258022428 z" fill="#4f8079" opacity="0.85" transform="rotate(159.5591353344636 508.1855451376609 600.2116990252891)"/>
  <path d="M508.1855451376609 600.2116990252891 q 43.13795093073929 -37.74570706439687 107.8448773268482 -10.784487732684822 q -48.53019479708169 43.13795093073929 -107.8448773268482 10.784487732684822 z" fill="#4f8079" opacity="0.85" transform="rotate(335.1618158852593 508.1855451376609 600.2116990252891)"/>
  <ellipse cx="508.1855451376609" cy="565.3207093018971" rx="26.6" ry="63.4" fill="#a8c9cf" opacity="0.92" transform="rotate(1.2 508.1855451376609 600.2116990252891)"/><ellipse cx="508.1855451376609" cy="565.3207093018971" rx="26.6" ry="63.4" fill="#7fa9b4" opacity="0.92" transform="rotate(52.6 508.1855451376609 600.2116990252891)"/><ellipse cx="508.1855451376609" cy="565.3207093018971" rx="26.6" ry="63.4" fill="#a8c9cf" opacity="0.92" transform="rotate(104.1 508.1855451376609 600.2116990252891)"/><ellipse cx="508.1855451376609" cy="565.3207093018971" rx="26.6" ry="63.4" fill="#7fa9b4" opacity="0.92" transform="rotate(155.5 508.1855451376609 600.2116990252891)"/><ellipse cx="508.1855451376609" cy="565.3207093018971" rx="26.6" ry="63.4" fill="#a8c9cf" opacity="0.92" transform="rotate(206.9 508.1855451376609 600.2116990252891)"/><ellipse cx="508.1855451376609" cy="565.3207093018971" rx="26.6" ry="63.4" fill="#7fa9b4" opacity="0.92" transform="rotate(258.3 508.1855451376609 600.2116990252891)"/><ellipse cx="508.1855451376609" cy="565.3207093018971" rx="26.6" ry="63.4" fill="#a8c9cf" opacity="0.92" transform="rotate(309.8 508.1855451376609 600.2116990252891)"/><circle cx="508.1855451376609" cy="600.2116990252891" r="21.6" fill="#f0e4b8"/>
</svg>
