<svg xmlns="http://www.w3.org/2000/svg" viewBox="0 0 900 900" width="900" height="900" role="img" aria-label="wedding-02">
  <defs>
    <linearGradient id="bg" x1="0" y1="0" x2="1" y2="1">
      <stop offset="0%" stop-color="#f6efe2"/>
      <stop offset="100%" stop-color="#ecdcc2"/>
    </linearGradient>
    <radialGradient id="glow" cx="30%" cy="24%" r="72%">
      <stop offset="0%" stop-color="#ffffff" stop-opacity="0.55"/>
      <stop offset="100%" stop-color="#ffffff" stop-opacity="0"/>
    </radialGradient>
  </defs>
  <rect width="900" height="900" fill="url(#bg)"/>
  <rect width="900" height="900" fill="url(#glow)"/>
  <circle cx="117.9" cy="712.9" r="2.4" fill="#ffffff" opacity="0.07"/><circle cx="571.9" cy="353.5" r="1.9" fill="#ffffff" opacity="0.11"/><circle cx="560.7" cy="322.8" r="1.4" fill="#ffffff" opacity="0.13"/><circle cx="56.5" cy="537.4" r="2.6" fill="#ffffff" opacity="0.14"/><circle cx="384.9" cy="560.2" r="2.7" fill="#ffffff" opacity="0.08"/><circle cx="820.6" cy="611.3" r="1.2" fill="#ffffff" opacity="0.14"/><circle cx="567.3" cy="603.7" r="2.3" fill="#ffffff" opacity="0.14"/><circle cx="38.2" cy="263.2" r="1.5" fill="#ffffff" opacity="0.18"/><circle cx="341.9" cy="508.3" r="2.6" fill="#ffffff" opacity="0.06"/><circle cx="457.6" cy="669.3" r="1.5" fill="#ffffff" opacity="0.07"/><circle cx="748.8" cy="19.1" r="1.8" fill="#ffffff" opacity="0.07"/><circle cx="292.3" cy="496.0" r="1.2" fill="#ffffff" opacity="0.06"/><circle cx="49.0" cy="543.4" r="1.6" fill="#ffffff" opacity="0.10"/><circle cx="761.7" cy="49.1" r="2.0" fill="#ffffff" opacity="0.18"/><circle cx="475.6" cy="464.9" r="2.9" fill="#ffffff" opacity="0.07"/><circle cx="358.7" cy="752.2" r="2.9" fill="#ffffff" opacity="0.10"/><circle cx="114.7" cy="251.2" r="3.1" fill="#ffffff" opacity="0.10"/><circle cx="789.5" cy="382.7" r="2.6" fill="#ffffff" opacity="0.11"/><circle cx="74.2" cy="569.0" r="1.0" fill="#ffffff" opacity="0.06"/><circle cx="826.9" cy="832.2" r="1.5" fill="#ffffff" opacity="0.13"/><circle cx="199.9" cy="410.4" r="2.3" fill="#ffffff" opacity="0.10"/><circle cx="431.1" cy="184.5" r="1.5" fill="#ffffff" opacity="0.12"/><circle cx="355.0" cy="258.2" r="2.3" fill="#ffffff" opacity="0.12"/><circle cx="681.4" cy="476.3" r="1.9" fill="#ffffff" opacity="0.06"/><circle cx="344.8" cy="214.0" r="1.5" fill="#ffffff" opacity="0.11"/><circle cx="254.5" cy="260.1" r="1.1" fill="#ffffff" opacity="0.08"/>
  <path d="M662.4200132313232 567.6903938426847 q 107.52379620912573 -94.083321682985 268.8094905228143 -26.880949052281434 q -120.96427073526644 107.52379620912573 -268.8094905228143 26.880949052281434 z" fill="#8a9a58" opacity="0.85" transform="rotate(72.64359831638718 662.4200132313232 567.6903938426847)"/>
  <path d="M662.4200132313232 567.6903938426847 q 87.04307312167322 -76.16268898146404 217.607682804183 -21.760768280418304 q -97.92345726188236 87.04307312167322 -217.607682804183 21.760768280418304 z" fill="#8a9a58" opacity="0.85" transform="rotate(80.47279980044644 662.4200132313232 567.6903938426847)"/>
  <ellipse cx="662.4200132313232" cy="497.2879082295666" rx="53.8" ry="128.0" fill="#f3c56d" opacity="0.92" transform="rotate(43.9 662.4200132313232 567.6903938426847)"/><ellipse cx="662.4200132313232" cy="497.2879082295666" rx="53.8" ry="128.0" fill="#e0a13f" opacity="0.92" transform="rotate(95.4 662.4200132313232 567.6903938426847)"/><ellipse cx="662.4200132313232" cy="497.2879082295666" rx="53.8" ry="128.0" fill="#f3c56d" opacity="0.92" transform="rotate(146.8 662.4200132313232 567.6903938426847)"/><ellipse cx="662.4200132313232" cy="497.2879082295666" rx="53.8" ry="128.0" fill="#e0a13f" opacity="0.92" transform="rotate(198.2 662.4200132313232 567.6903938426847)"/><ellipse cx="662.4200132313232" cy="497.2879082295666" rx="53.8" ry="128.0" fill="#f3c56d" opacity="0.92" transform="rotate(249.6 662.4200132313232 567.6903938426847)"/><ellipse cx="662.4200132313232" cy="497.2879082295666" rx="53.8" ry="128.0" fill="#e0a13f" opacity="0.92" transform="rotate(301.1 662.4200132313232 567.6903938426847)"/><ellipse cx="662.4200132313232" cy="497.2879082295666" rx="53.8" ry="128.0" fill="#f3c56d" opacity="0.92" transform="rotate(352.5 662.4200132313232 567.6903938426847)"/><circle cx="662.4200132313232" cy="567.6903938426847" r="43.5" fill="#fff4d4"/>
  <path d="M447.19854245269636 491.6148699893651 q 72.86754183906773 -63.759099109184255 182.1688545976693 -18.21688545976693 q -81.97598456895119 72.86754183906773 -182.1688545976693 18.21688545976693 z" fill="#8a9a58" opacity="0.85" transform="rotate(82.19549858062423 447.19854245269636 491.6148699893651)"/>
  <path d="M447.19854245269636 491.6148699893651 q 58.98801006019768 -51.614508802672965 147.4700251504942 -14.74700251504942 q -66.36151131772239 58.98801006019768 -147.4700251504942 14.74700251504942 z" fill="#8a9a58" opacity="0.85" transform="rotate(354.497871658415 447.19854245269636 491.6148699893651)"/>
  <ellipse cx="447.19854245269636" cy="443.9039794994993" rx="36.4" ry="86.7" fill="#f3c56d" opacity="0.92" transform="rotate(44.6 447.19854245269636 491.6148699893651)"/><ellipse cx="447.19854245269636" cy="443.9039794994993" rx="36.4" ry="86.7" fill="#e0a13f" opacity="0.92" transform="rotate(96.1 447.19854245269636 491.6148699893651)"/><ellipse cx="447.19854245269636" cy="443.9039794994993" rx="36.4" ry="86.7" fill="#f3c56d" opacity="0.92" transform="rotate(147.5 447.19854245269636 491.6148699893651)"/><ellipse cx="447.19854245269636" cy="443.9039794994993" rx="36.4" ry="86.7" fill="#e0a13f" opacity="0.92" transform="rotate(198.9 447.19854245269636 491.6148699893651)"/><ellipse cx="447.19854245269636" cy="443.9039794994993" rx="36.4" ry="86.7" fill="#f3c56d" opacity="0.92" transform="rotate(250.4 447.19854245269636 491.6148699893651)"/><ellipse cx="447.19854245269636" cy="443.9039794994993" rx="36.4" ry="86.7" fill="#e0a13f" opacity="0.92" transform="rotate(301.8 447.19854245269636 491.6148699893651)"/><ellipse cx="447.19854245269636" cy="443.9039794994993" rx="36.4" ry="86.7" fill="#f3c56d" opacity="0.92" transform="rotate(353.2 447.19854245269636 491.6148699893651)"/><circle cx="447.19854245269636" cy="491.6148699893651" r="29.5" fill="#fff4d4"/>
  <path d="M342.2406220855751 585.769215709476 q 103.33108386288654 -90.41469838002573 258.32770965721636 -25.832770965721636 q -116.24746934574736 103.33108386288654 -258.32770965721636 25.832770965721636 z" fill="#8a9a58" opacity="0.85" transform="rotate(3.6815197122473085 342.2406220855751 585.769215709476)"/>
  <path d="M342.2406220855751 585.769215709476 q 83.64897265090816 -73.19285106954463 209.1224316272704 -20.91224316272704 q -94.10509423227168 83.64897265090816 -209.1224316272704 20.91224316272704 z" fill="#8a9a58" opacity="0.85" transform="rotate(126.8719728027638 342.2406220855751 585.769215709476)"/>
  <ellipse cx="342.2406220855751" cy="518.1119584183003" rx="51.7" ry="123.0" fill="#f3c56d" opacity="0.92" transform="rotate(25.1 342.2406220855751 585.769215709476)"/><ellipse cx="342.2406220855751" cy="518.1119584183003" rx="51.7" ry="123.0" fill="#e0a13f" opacity="0.92" transform="rotate(85.1 342.2406220855751 585.769215709476)"/><ellipse cx="342.2406220855751" cy="518.1119584183003" rx="51.7" ry="123.0" fill="#f3c56d" opacity="0.92" transform="rotate(145.1 342.2406220855751 585.769215709476)"/><ellipse cx="342.2406220855751" cy="518.1119584183003" rx="51.7" ry="123.0" fill="#e0a13f" opacity="0.92" transform="rotate(205.1 342.2406220855751 585.769215709476)"/><ellipse cx="342.2406220855751" cy="518.1119584183003" rx="51.7" ry="123.0" fill="#f3c56d" opacity="0.92" transform="rotate(265.1 342.2406220855751 585.769215709476)"/><ellipse cx="342.2406220855751" cy="518.1119584183003" rx="51.7" ry="123.0" fill="#e0a13f" opacity="0.92" transform="rotate(325.1 342.2406220855751 585.769215709476)"/><circle cx="342.2406220855751" cy="585.769215709476" r="41.8" fill="#fff4d4"/>
  <path d="M722.9907001967055 369.36943241380374 q 59.62392864362894 -52.170937563175315 149.05982160907234 -14.905982160907236 q -67.07691972408256 59.62392864362894 -149.05982160907234 14.905982160907236 z" fill="#8a9a58" opacity="0.85" transform="rotate(270.4412204284317 722.9907001967055 369.36943241380374)"/>
  <path d="M722.9907001967055 369.36943241380374 q 48.26698985436628 -42.23361612257049 120.6674746359157 -12.06674746359157 q -54.300363586162064 48.26698985436628 -120.6674746359157 12.06674746359157 z" fill="#8a9a58" opacity="0.85" transform="rotate(193.25700996286633 722.9907001967055 369.36943241380374)"/>
  <ellipse cx="722.9907001967055" cy="330.32995532571334" rx="29.8" ry="71.0" fill="#f3c56d" opacity="0.92" transform="rotate(17.6 722.9907001967055 369.36943241380374)"/><ellipse cx="722.9907001967055" cy="330.32995532571334" rx="29.8" ry="71.0" fill="#e0a13f" opacity="0.92" transform="rotate(77.6 722.9907001967055 369.36943241380374)"/><ellipse cx="722.9907001967055" cy="330.32995532571334" rx="29.8" ry="71.0" fill="#f3c56d" opacity="0.92" transform="rotate(137.6 722.9907001967055 369.36943241380374)"/><ellipse cx="722.9907001967055" cy="330.32995532571334" rx="29.8" ry="71.0" fill="#e0a13f" opacity="0.92" transform="rotate(197.6 722.9907001967055 369.36943241380374)"/><ellipse cx="722.9907001967055" cy="330.32995532571334" rx="29.8" ry="71.0" fill="#f3c56d" opacity="0.92" transform="rotate(257.6 722.9907001967055 369.36943241380374)"/><ellipse cx="722.9907001967055" cy="330.32995532571334" rx="29.8" ry="71.0" fill="#e0a13f" opacity="0.92" transform="rotate(317.6 722.9907001967055 369.36943241380374)"/><circle cx="722.9907001967055" cy="369.36943241380374" r="24.1" fill="#fff4d4"/>
  <path d="M344.6393684126994 606.595227820006 q 85.39381807804898 -74.71959081829284 213.48454519512242 -21.348454519512245 q -96.06804533780509 85.39381807804898 -213.48454519512242 21.348454519512245 z" fill="#8a9a58" opacity="0.85" transform="rotate(12.969762769753524 344.6393684126994 606.595227820006)"/>
  <path d="M344.6393684126994 606.595227820006 q 69.12832892032536 -60.48728780528468 172.82082230081338 -17.28208223008134 q -77.76937003536602 69.12832892032536 -172.82082230081338 17.28208223008134 z" fill="#8a9a58" opacity="0.85" transform="rotate(100.22709812508594 344.6393684126994 606.595227820006)"/>
  <ellipse cx="344.6393684126994" cy="550.6826088403311" rx="42.7" ry="101.7" fill="#f3c56d" opacity="0.92" transform="rotate(30.5 344.6393684126994 606.595227820006)"/><ellipse cx="344.6393684126994" cy="550.6826088403311" rx="42.7" ry="101.7" fill="#e0a13f" opacity="0.92" transform="rotate(90.5 344.6393684126994 606.595227820006)"/><ellipse cx="344.6393684126994" cy="550.6826088403311" rx="42.7" ry="101.7" fill="#f3c56d" opacity="0.92" transform="rotate(150.5 344.6393684126994 606.595227820006)"/><ellipse cx="344.6393684126994" cy="550.6826088403311" rx="42.7" ry="101.7" fill="#e0a13f" opacity="0.92" transform="rotate(210.5 344.6393684126994 606.595227820006)"/><ellipse cx="344.6393684126994" cy="550.6826088403311" rx="42.7" ry="101.7" fill="#f3c56d" opacity="0.92" transform="rotate(270.5 344.6393684126994 606.595227820006)"/><ellipse cx="344.6393684126994" cy="550.6826088403311" rx="42.7" ry="101.7" fill="#e0a13f" opacity="0.92" transform="rotate(330.5 344.6393684126994 606.595227820006)"/><circle cx="344.6393684126994" cy="606.595227820006" r="34.6" fill="#fff4d4"/>
  <path d="M675.6057913754149 368.9817531520924 q 72.60875924145077 -63.53266433626941 181.5218981036269 -18.152189810362692 q -81.6848541466321 72.60875924145077 -181.5218981036269 18.152189810362692 z" fill="#8a9a58" opacity="0.85" transform="rotate(80.38527303384275 675.6057913754149 368.9817531520924)"/>
  <path d="M675.6057913754149 368.9817531520924 q 58.778519385936335 -51.43120446269428 146.94629846484082 -14.694629846484084 q -66.12583430917837 58.778519385936335 -146.94629846484082 14.694629846484084 z" fill="#8a9a58" opacity="0.85" transform="rotate(335.766943696832 675.6057913754149 368.9817531520924)"/>
  <ellipse cx="675.6057913754149" cy="321.4403036487615" rx="36.3" ry="86.4" fill="#f3c56d" opacity="0.92" transform="rotate(39.2 675.6057913754149 368.9817531520924)"/><ellipse cx="675.6057913754149" cy="321.4403036487615" rx="36.3" ry="86.4" fill="#e0a13f" opacity="0.92" transform="rotate(90.6 675.6057913754149 368.9817531520924)"/><ellipse cx="675.6057913754149" cy="321.4403036487615" rx="36.3" ry="86.4" fill="#f3c56d" opacity="0.92" transform="rotate(142.1 675.6057913754149 368.9817531520924)"/><ellipse cx="675.6057913754149" cy="321.4403036487615" rx="36.3" ry="86.4" fill="#e0a13f" opacity="0.92" transform="rotate(193.5 675.6057913754149 368.9817531520924)"/><ellipse cx="675.6057913754149" cy="321.4403036487615" rx="36.3" ry="86.4" fill="#f3c56d" opacity="0.92" transform="rotate(244.9 675.6057913754149 368.9817531520924)"/><ellipse cx="675.6057913754149" cy="321.4403036487615" rx="36.3" ry="86.4" fill="#e0a13f" opacity="0.92" transform="rotate(296.4 675.6057913754149 368.9817531520924)"/><ellipse cx="675.6057913754149" cy="321.4403036487615" rx="36.3" ry="86.4" fill="#f3c56d" opacity="0.92" transform="rotate(347.8 675.6057913754149 368.9817531520924)"/><circle cx="675.6057913754149" cy="368.9817531520924" r="29.4" fill="#fff4d4"/>
</svg>
